0
SECTION
2
HEADER
9
$INSUNITS
70
4
9
$ACADVER
1
AC1014
9
$HANDSEED
5
FFFF
0
ENDSEC
0
SECTION
2
TABLES
0
TABLE
2
VPORT
5
8
100
AcDbSymbolTable
0
ENDTAB
0
TABLE
2
LTYPE
5
5
100
AcDbSymbolTable
0
LTYPE
5
14
100
AcDbSymbolTableRecord
100
AcDbLinetypeTableRecord
2
BYBLOCK
70
0
0
LTYPE
5
15
100
AcDbSymbolTableRecord
100
AcDbLinetypeTableRecord
2
BYLAYER
70
0
0
LTYPE
5
16
100
AcDbSymbolTableRecord
100
AcDbLinetypeTableRecord
2
DASHED
70
0
3
Dashed __ __ __ __ __ __ __ __ __ __ __ __ __ _
72
65
73
2
40
0.75
49
0.5
74
0
49
-0.25
74
0
0
ENDTAB
0
TABLE
2
LAYER
5
2
100
AcDbSymbolTable
70
2
0
LAYER
5
50
100
AcDbSymbolTableRecord
100
AcDbLayerTableRecord
2
0
70
0
62
7
6
CONTINUOUS
0
ENDTAB
0
TABLE
2
STYLE
5
3
100
AcDbSymbolTable
70
1
0
STYLE
5
11
100
AcDbSymbolTableRecord
100
AcDbTextStyleTableRecord
2
STANDARD
70
0
0
ENDTAB
0
TABLE
2
VIEW
5
6
100
AcDbSymbolTable
70
0
0
ENDTAB
0
TABLE
2
UCS
5
7
100
AcDbSymbolTable
70
0
0
ENDTAB
0
TABLE
2
APPID
5
9
100
AcDbSymbolTable
70
2
0
APPID
5
12
100
AcDbSymbolTableRecord
100
AcDbRegAppTableRecord
2
ACAD
70
0
0
ENDTAB
0
TABLE
2
DIMSTYLE
5
A
100
AcDbSymbolTable
70
1
0
ENDTAB
0
TABLE
2
BLOCK_RECORD
5
1
100
AcDbSymbolTable
70
1
0
BLOCK_RECORD
5
1F
100
AcDbSymbolTableRecord
100
AcDbBlockTableRecord
2
*MODEL_SPACE
0
BLOCK_RECORD
5
1B
100
AcDbSymbolTableRecord
100
AcDbBlockTableRecord
2
*PAPER_SPACE
0
ENDTAB
0
ENDSEC
0
SECTION
2
BLOCKS
0
BLOCK
5
20
100
AcDbEntity
100
AcDbBlockBegin
2
*MODEL_SPACE
0
ENDBLK
5
21
100
AcDbEntity
100
AcDbBlockEnd
0
BLOCK
5
1C
100
AcDbEntity
100
AcDbBlockBegin
2
*PAPER_SPACE
0
ENDBLK
5
1D
100
AcDbEntity
100
AcDbBlockEnd
0
ENDSEC
0
SECTION
2
ENTITIES
0
ARC
5
100
100
AcDbEntity
8
0
100
AcDbCircle
10
3.38116358627
20
7.2489443710400003
30
0
40
1.2
210
0
220
0
230
1
100
AcDbArc
50
180
51
270
0
LINE
5
101
100
AcDbEntity
8
0
100
AcDbLine
10
6.4811635862649997
20
6.0489443710400002
30
0
11
3.3811635862699996
21
6.0489443710400002
31
0
0
ARC
5
102
100
AcDbEntity
8
0
100
AcDbCircle
10
6.4811635862700001
20
5.2489443710400003
30
0
40
0.80000000000000071
210
-0
220
0
230
1
100
AcDbArc
50
0
51
90.000000000358128
0
LINE
5
103
100
AcDbEntity
8
0
100
AcDbLine
10
7.2811635862699999
20
2.6739443710400002
30
0
11
7.2811635862699999
21
2.1989443710400005
31
0
0
LINE
5
104
100
AcDbEntity
8
0
100
AcDbLine
10
7.2811635862699999
20
2.6739443710400002
30
0
11
7.2811635862700008
21
2.8739443710399999
31
0
0
LINE
5
105
100
AcDbEntity
8
0
100
AcDbLine
10
7.2811635862700008
20
4.5739443710399996
30
0
11
7.2811635862700008
21
4.6239443710400003
31
0
0
LINE
5
106
100
AcDbEntity
8
0
100
AcDbLine
10
7.2811635862700008
20
4.6239443710400003
30
0
11
7.2811635862700008
21
5.2489443710229988
31
0
0
LINE
5
107
100
AcDbEntity
8
0
100
AcDbLine
10
3.2728157348929998
20
1.3989443710399998
30
0
11
7.381163586285
21
1.3989443710399989
31
0
0
ARC
5
108
100
AcDbEntity
8
0
100
AcDbCircle
10
3.27281573489
20
2.1989443710400005
30
0
40
0.79999999999999982
210
0
220
0
230
1
100
AcDbArc
50
184.7801918544103
51
270.00000000021481
0
ARC
5
109
100
AcDbEntity
8
0
100
AcDbCircle
10
0.88116358627000013
20
1.9989443710400001
30
0
40
1.5999999999997214
210
0
220
-0
230
1
100
AcDbArc
50
4.7801918435943529
51
89.999999999999972
0
LINE
5
110
100
AcDbEntity
8
0
100
AcDbLine
10
0.88116358627000069
20
3.5989443710400004
30
0
11
-1.4274150570684969
21
3.5989443710400004
31
0
0
LINE
5
111
100
AcDbEntity
8
0
100
AcDbLine
10
-1.4981257330570301
20
3.6282336903670305
30
0
11
-2.2395470911960915
21
4.3696550485060914
31
0
0
LINE
5
112
100
AcDbEntity
8
0
100
AcDbLine
10
-2.2688364137299994
20
5.0752583753918703
30
0
11
-2.2688364137299994
21
4.4403657198489741
31
0
0
LINE
5
113
100
AcDbEntity
8
0
100
AcDbLine
10
-2.268836413729999
20
7.4075230145646209
30
0
11
-2.268836413729999
21
6.775258377145108
31
0
0
LINE
5
114
100
AcDbEntity
8
0
100
AcDbLine
10
-2.2395470961278376
20
7.4782336886421641
30
0
11
-1.4981257359722713
21
8.2196550487977298
31
0
0
LINE
5
115
100
AcDbEntity
8
0
100
AcDbLine
10
0.96695002389700024
20
8.2489443710400003
30
0
11
-1.4274150655265445
21
8.2489443710400003
31
0
0
LINE
5
116
100
AcDbEntity
8
0
100
AcDbLine
10
2.1811635862700003
20
7.4075230206504381
30
0
11
2.1811635862700003
21
7.2489443710798183
31
0
0
LINE
5
117
100
AcDbEntity
8
0
100
AcDbLine
10
7.2811635862699999
20
2.1989443710400005
30
0
11
7.3811635862649982
21
2.1989443710399961
31
0
0
ARC
5
118
100
AcDbEntity
8
0
100
AcDbCircle
10
7.3811635862699996
20
1.59894437104
30
0
40
0.20000000000000101
210
0
220
0
230
1
100
AcDbArc
50
-89.99999999570268
51
0
0
ARC
5
119
100
AcDbEntity
8
0
100
AcDbCircle
10
-1.4274150574927622
20
3.6989443710399117
30
0
40
0.09999999999988686
210
0
220
0
230
1
100
AcDbArc
50
225.00000206971555
51
270.00000024308605
0
ARC
5
120
100
AcDbEntity
8
0
100
AcDbCircle
10
-2.1688364137300344
20
4.4403657272773174
30
0
40
0.099999999999965394
210
0
220
0
230
1
100
AcDbArc
50
180.00000426886822
51
225.00000052877917
0
ARC
5
121
100
AcDbEntity
8
0
100
AcDbCircle
10
-2.1688364137299181
20
7.4075230148035045
30
0
40
0.099999999999484043
210
0
220
0
230
1
100
AcDbArc
50
135.00000346771864
51
180
0
ARC
5
122
100
AcDbEntity
8
0
100
AcDbCircle
10
-1.4274150574931765
20
8.1489443710399154
30
0
40
0.10000000000008591
210
0
220
0
230
1
100
AcDbArc
50
90.000004602780805
51
135.00000029222122
0
ARC
5
123
100
AcDbEntity
8
0
100
AcDbCircle
10
0.96695002389700013
20
7.2489443710400003
30
0
40
1
210
0
220
-0
230
1
100
AcDbArc
50
45.000000000025068
51
90
0
ARC
5
124
100
AcDbEntity
8
0
100
AcDbCircle
10
2.0811635862697773
20
7.4075230148025248
30
0
40
0.10000000000022313
210
0
220
-0
230
1
100
AcDbArc
50
3.3066511133632061e-06
51
45.000000064927313
0
ARC
5
125
100
AcDbEntity
8
0
100
AcDbCircle
10
7.3811635862769993
20
1.9989443710499981
30
0
40
0.19999999999000151
210
0
220
0
230
1
100
AcDbArc
50
0
51
90.000000003438046
0
LINE
5
126
100
AcDbEntity
8
0
100
AcDbLine
10
7.5811635862699998
20
1.5989443710780002
30
0
11
7.5811635862670013
21
1.9989443708920001
31
0
0
LINE
5
127
100
AcDbEntity
8
0
100
AcDbLine
10
1.6740568050832383
20
7.9560511522268573
30
0
11
2.1518742643086526
21
7.4782336930016582
31
0
0
LINE
5
128
100
AcDbEntity
8
0
100
AcDbLine
10
9.0811635862699998
20
4.2639443710400009
30
0
11
9.0811635862699998
21
3.76394437104
31
0
0
LINE
5
129
100
AcDbEntity
8
0
100
AcDbLine
10
9.0811635862699998
20
4.4139443710400004
30
0
11
9.0811635862699998
21
4.2639443710400009
31
0
0
LINE
5
130
100
AcDbEntity
8
0
100
AcDbLine
10
9.0811635862699998
20
4.5639443710399998
30
0
11
9.0811635862699998
21
4.4139443710400004
31
0
0
LINE
5
131
100
AcDbEntity
8
0
100
AcDbLine
10
7.4311635725360059
20
4.5639443710850003
30
0
11
8.8811635862680003
21
4.5639443710850003
31
0
0
LINE
5
132
100
AcDbEntity
8
0
100
AcDbLine
10
8.8811635862680003
20
4.5639443710850003
30
0
11
9.0811635862699998
21
4.5639443710399998
31
0
0
LINE
5
133
100
AcDbEntity
8
0
100
AcDbLine
10
8.8811635862700005
20
2.8839443710229999
30
0
11
7.4311635351000005
21
2.8839443710399997
31
0
0
LINE
5
134
100
AcDbEntity
8
0
100
AcDbLine
10
9.0811635862699998
20
3.0339443710399996
30
0
11
9.0811635862699998
21
3.1839443710399999
31
0
0
LINE
5
135
100
AcDbEntity
8
0
100
AcDbLine
10
9.0811635862699998
20
2.8839443710400001
30
0
11
9.0811635862699998
21
3.0339443710399996
31
0
0
LINE
5
136
100
AcDbEntity
8
0
100
AcDbLine
10
9.0811635862699998
20
3.1839443710399999
30
0
11
9.0811635862699998
21
3.6839443710399999
31
0
0
LINE
5
137
100
AcDbEntity
8
0
100
AcDbLine
10
9.0811635862699998
20
2.8839443710400001
30
0
11
8.8811635862700005
21
2.8839443710229999
31
0
0
LINE
5
138
100
AcDbEntity
8
0
100
AcDbLine
10
-4.0688364137350002
20
5.3852583862300012
30
0
11
-4.0688364137350002
21
5.8852583862300003
31
0
0
LINE
5
139
100
AcDbEntity
8
0
100
AcDbLine
10
-4.0688364137350002
20
5.2352583862300008
30
0
11
-4.0688364137350002
21
5.3852583862300012
31
0
0
LINE
5
140
100
AcDbEntity
8
0
100
AcDbLine
10
-4.0688364137350002
20
5.0852583862299996
30
0
11
-4.0688364137350002
21
5.2352583862300008
31
0
0
LINE
5
141
100
AcDbEntity
8
0
100
AcDbLine
10
-2.418836400001005
20
5.085258386185
30
0
11
-3.8688364137329998
21
5.085258386185
31
0
0
LINE
5
142
100
AcDbEntity
8
0
100
AcDbLine
10
-3.8688364137329998
20
5.085258386185
30
0
11
-4.0688364137350002
21
5.0852583862299996
31
0
0
LINE
5
143
100
AcDbEntity
8
0
100
AcDbLine
10
-3.868836413735
20
6.7652583862470008
30
0
11
-2.418836362565
21
6.765258386230002
31
0
0
LINE
5
144
100
AcDbEntity
8
0
100
AcDbLine
10
-4.0688364137350002
20
6.6152583862300007
30
0
11
-4.0688364137350002
21
6.4652583862300004
31
0
0
LINE
5
145
100
AcDbEntity
8
0
100
AcDbLine
10
-4.0688364137350002
20
6.7652583862300011
30
0
11
-4.0688364137350002
21
6.6152583862300007
31
0
0
LINE
5
146
100
AcDbEntity
8
0
100
AcDbLine
10
-4.0688364137350002
20
6.4652583862300004
30
0
11
-4.0688364137350002
21
5.9652583862300004
31
0
0
LINE
5
147
100
AcDbEntity
8
0
100
AcDbLine
10
-4.0688364137350002
20
6.7652583862300011
30
0
11
-3.868836413735
21
6.7652583862470008
31
0
0
LINE
5
148
100
AcDbEntity
8
0
100
AcDbLine
10
-2.418836400001005
20
5.085258386185
30
0
11
-2.2688364137299994
21
5.0752583753918703
31
0
0
LINE
5
149
100
AcDbEntity
8
0
100
AcDbLine
10
-2.418836362565
20
6.765258386230002
30
0
11
-2.268836413729999
21
6.775258377145108
31
0
0
LINE
5
150
100
AcDbEntity
8
0
100
AcDbLine
10
7.2811635862700008
20
4.5739443710399996
30
0
11
7.4311635725360059
21
4.5639443710850003
31
0
0
LINE
5
151
100
AcDbEntity
8
0
100
AcDbLine
10
7.2811635862700008
20
2.8739443710399999
30
0
11
7.4311635351000005
21
2.8839443710399997
31
0
0
LINE
5
152
100
AcDbEntity
8
0
100
AcDbLine
10
-4.0688364137350002
20
5.8852583862300003
30
0
11
-4.0688364137350002
21
5.9652583862300004
31
0
0
LINE
5
153
100
AcDbEntity
8
0
100
AcDbLine
10
9.0811635862699998
20
3.6839443710399999
30
0
11
9.0811635862699998
21
3.76394437104
31
0
0
ENDSEC
0
SECTION
2
OBJECTS
0
DICTIONARY
5
C
100
AcDbDictionary
3
ACAD_GROUP
350
D
3
ACAD_MLINESTYLE
350
17
0
DICTIONARY
5
D
100
AcDbDictionary
0
DICTIONARY
5
1A
330
C
100
AcDbDictionary
0
DICTIONARY
5
17
100
AcDbDictionary
0
ENDSEC
0
EOF
