<?xml version="1.0" encoding="UTF-8" standalone="no"?>
<!-- Created with Inkscape (http://www.inkscape.org/) -->

<svg
   width="107.60361mm"
   height="87.165405mm"
   viewBox="0 0 107.60363 87.165404"
   version="1.1"
   id="svg1"
   xml:space="preserve"
   inkscape:version="1.4.3 (0d15f75, 2025-12-25)"
   sodipodi:docname="outline.svg"
   xmlns:inkscape="http://www.inkscape.org/namespaces/inkscape"
   xmlns:sodipodi="http://sodipodi.sourceforge.net/DTD/sodipodi-0.dtd"
   xmlns="http://www.w3.org/2000/svg"
   xmlns:svg="http://www.w3.org/2000/svg"><sodipodi:namedview
     id="namedview1"
     pagecolor="#ffffff"
     bordercolor="#000000"
     borderopacity="0.25"
     inkscape:showpageshadow="2"
     inkscape:pageopacity="0.0"
     inkscape:pagecheckerboard="0"
     inkscape:deskcolor="#d1d1d1"
     inkscape:document-units="mm"
     inkscape:zoom="1.2982282"
     inkscape:cx="245.71951"
     inkscape:cy="219.91511"
     inkscape:window-width="1446"
     inkscape:window-height="872"
     inkscape:window-x="12"
     inkscape:window-y="44"
     inkscape:window-maximized="0"
     inkscape:current-layer="layer3" /><defs
     id="defs1" /><g
     inkscape:label="Layer 1"
     inkscape:groupmode="layer"
     id="layer1"
     transform="translate(-0.20113104,-116.13446)"
     style="display:inline"><path
       id="path1"
       style="display:none;fill:none;stroke:#000000;stroke-opacity:1"
       d="m 107.36657,124.79652 c 0.007,-0.96044 0.0205,-2.84364 0.0295,-4.18476 l 0.0165,-2.43809 -0.0589,-0.15245 c -0.10117,-0.26196 -0.33722,-0.71763 -0.49092,-0.94775 -0.17549,-0.26274 -0.54236,-0.66075 -0.83768,-0.90898 -0.11718,-0.0985 -0.46419,-0.39063 -0.77153,-0.64906 -1.14722,-0.96466 -2.48908,-2.02013 -3.67781,-2.89285 -0.33233,-0.24399 -0.62952,-0.46072 -0.66042,-0.48162 -0.0309,-0.021 -0.30761,-0.21408 -0.61495,-0.42943 -5.564378,-3.8989 -11.857554,-7.01796 -18.402497,-9.12038 -0.398145,-0.1279 -0.820732,-0.26099 -0.939477,-0.29559 -0.118745,-0.0346 -0.484575,-0.14216 -0.81287,-0.23926 -0.805079,-0.2382 -1.8864,-0.53014 -2.6417,-0.71313 -0.342265,-0.0829 -0.708095,-0.17331 -0.81287,-0.20051 -0.353868,-0.0917 -1.68355,-0.37775 -2.526977,-0.54363 -2.345094,-0.4612 -4.585721,-0.784641 -7.061585,-1.020095 -2.234223,-0.212475 -4.407663,-0.288393 -8.280115,-0.289388 l -2.184362,-0.001 -1.117762,0.101803 c -2.561828,0.232417 -4.777554,0.49411 -7.734411,0.91415 -0.188595,0.0268 -0.714379,0.10677 -1.168404,0.17777 -0.454025,0.071 -0.933887,0.14535 -1.066602,0.16485 -0.132715,0.0195 -0.639534,0.10495 -1.126029,0.18965 -0.486494,0.0847 -0.983642,0.17059 -1.104843,0.19069 -1.745683,0.28906 -5.471449,1.06167 -7.916312,1.64176 -1.048228,0.24872 -1.27988,0.30605 -2.67994,0.66145 -2.050515,0.52053 -5.690075,1.5563 -7.302397,2.07843 -0.522424,0.16918 -1.739155,0.5597 -1.892391,0.6072 -0.376276,0.11676 -2.396219,0.81157 -3.361552,1.15652 -0.570509,0.20386 -1.04681,0.37103 -1.05885,0.37103 -0.04948,0 -0.25768,0.16219 -0.33538,0.26149 -0.127847,0.16335 -0.167023,0.24815 -0.195853,0.42581 -0.01808,0.11117 -0.02649,2.96005 -0.02687,8.91367 -6.34e-4,9.78124 0.0178,8.88387 -0.189653,9.31157 -0.187211,0.38598 -0.547172,0.72373 -0.942061,0.88419 -0.374507,0.15258 0.223724,0.14239 -8.6780232,0.14262 -7.1480684,2e-4 -8.14849509,0.004 -8.24394129,0.0377 -0.25047133,0.0874 -0.47417329,0.29685 -0.55810546,0.52245 -0.05110703,0.13737 -0.05100367,0.16857 -0.05994467,16.1649 -0.00728,13.024 -0.002617,16.09661 0.02428793,16.3959 0.12236827,1.3612 0.35019535,2.57431 0.6821289,3.63234 0.0504021,0.16065 0.10584098,0.34327 0.12350668,0.40617 0.0460607,0.16391 0.27313242,0.77775 0.40876061,1.10485 0.3412837,0.82306 0.5258823,1.15725 5.6559855,10.23658 2.8495481,5.04317 5.221743,9.24351 5.271513,9.33431 0.304115,0.55484 0.816012,0.95242 1.387512,1.07746 0.09779,0.0214 0.200987,0.0442 0.228927,0.0512 0.09601,0.023 0.635044,-0.008 0.774629,-0.045 0.295142,-0.0774 0.379977,-0.11995 1.19786,-0.6041 5.553934,-3.28766 11.845353,-6.07393 18.08055,-8.00726 0.918959,-0.28494 2.178025,-0.65388 2.654102,-0.77773 0.710972,-0.18494 4.070577,-0.89171 6.578926,-1.3839 0.68453,-0.13432 1.472948,-0.28885 1.752348,-0.34365 0.48299,-0.0947 1.651291,-0.31267 3.327446,-0.62011 10.277903,-1.88519 21.945275,-3.39031 32.689994,-4.21732 5.474102,-0.42134 9.505565,-0.63492 15.836759,-0.83922 1.972891,-0.0636 8.460562,-0.16419 8.543662,-0.13229 0.0583,0.0223 0.57016,-0.0309 0.71055,-0.0739 0.45799,-0.14038 0.83673,-0.3974 1.12293,-0.76223 0.16721,-0.21313 0.28034,-0.44442 0.38396,-0.78445 0.0448,-0.14609 0.0463,-0.39831 0.0393,-6.08955 z"
       sodipodi:nodetypes="ccccsssscssccscsscccsscccssscssccsscscssssssssscsssssssssccsccc"
       sodipodi:insensitive="true" /></g><g
     inkscape:groupmode="layer"
     id="layer3"
     inkscape:label="main"
     transform="translate(-0.50063135,-17.34592)"><path
       id="path2"
       style="display:inline;fill:#000000;fill-opacity:1;stroke:none;stroke-opacity:1"
       d="m 0.51711919,55.681133 -0.0165,-2.43809 c 0.20221,-0.52338 0.52537991,-1.28453 1.38749991,-2.00918 6.654997,-5.5941 21.5579179,-16.814833 47.2028089,-16.874943 20.042835,1.036903 42.269553,7.023183 58.883742,17.888623 0.25681,0.16795 0.051,11.03375 0.06,27.03008 0.007,13.024 0.003,16.09661 -0.0243,16.3959 -0.12237,1.3612 -0.3502,2.57431 -0.68213,3.63234 -0.0504,0.16065 -0.10584,0.34327 -0.12351,0.40617 -0.67996,2.419697 -6.31399,11.513157 -11.336258,20.675727 -0.304115,0.55484 -0.816012,0.95242 -1.387512,1.07746 -0.09779,0.0214 -0.200987,0.0442 -0.228927,0.0512 -0.09601,0.023 -0.635044,-0.008 -0.774629,-0.045 -0.295142,-0.0774 -0.379977,-0.11995 -1.19786,-0.6041 -17.195328,-10.17879 -45.716693,-15.05321 -80.920125,-16.18918 -1.9728909,-0.0636 -8.4605699,-0.16419 -8.5436699,-0.13229 -0.0583,0.0223 -0.57016,-0.0309 -0.71055,-0.0739 -0.45799,-0.14038 -0.83673,-0.3974 -1.12292991,-0.76223 -0.16721,-0.21313 -0.28034,-0.44442 -0.38396,-0.78445 -0.0448,-0.14609 -0.0463,-0.39831 -0.0393,-6.089547 -0.0387,-13.71809 -0.0418,-41.15459 -0.0418,-41.15459 z M 98.509661,55.465124"
       sodipodi:nodetypes="ccscssssssscsssccscccc" /></g></svg>
